<svg xmlns="http://www.w3.org/2000/svg" xmlns:xlink="http://www.w3.org/1999/xlink" width="512" zoomAndPan="magnify" viewBox="0 0 384 383.999986" height="512" preserveAspectRatio="xMidYMid meet" version="1.0"><path fill="#ffffff" d="M 159.664062 371.875 L 30.316406 371.875 C 20.285156 371.875 12.125 363.714844 12.125 353.683594 C 12.125 343.65625 20.285156 335.496094 30.316406 335.496094 L 71.019531 335.496094 C 74.710938 335.496094 78.179688 334.054688 80.785156 331.4375 C 83.441406 328.773438 84.898438 325.210938 84.886719 321.433594 L 84.886719 321.347656 C 84.886719 311.316406 93.042969 303.15625 103.074219 303.15625 L 127.328125 303.15625 C 130.675781 303.15625 133.390625 300.445312 133.390625 297.09375 C 133.390625 293.746094 130.675781 291.03125 127.328125 291.03125 L 103.074219 291.03125 C 86.359375 291.03125 72.757812 304.628906 72.757812 321.347656 L 72.757812 321.453125 C 72.761719 322.199219 72.40625 322.667969 72.195312 322.878906 C 71.871094 323.203125 71.476562 323.367188 71.019531 323.367188 L 30.316406 323.367188 C 13.597656 323.367188 0 336.96875 0 353.683594 C 0 370.402344 13.597656 384 30.316406 384 L 159.664062 384 C 163.011719 384 165.726562 381.285156 165.726562 377.9375 C 165.726562 374.585938 163.011719 371.875 159.664062 371.875 Z M 159.664062 371.875 " fill-opacity="1" fill-rule="nonzero"/><path fill="#ffffff" d="M 361.769531 88.925781 L 334.128906 88.925781 C 331.855469 84.152344 326.980469 80.839844 321.347656 80.839844 L 280.925781 80.839844 C 275.292969 80.839844 270.417969 84.152344 268.144531 88.925781 L 240.503906 88.925781 C 237.15625 88.925781 234.441406 91.640625 234.441406 94.988281 C 234.441406 98.335938 237.15625 101.050781 240.503906 101.050781 L 266.777344 101.050781 L 266.777344 102.703125 C 266.777344 114.414062 275.398438 124.085938 286.828125 125.199219 C 288.238281 125.335938 289.644531 125.339844 291.03125 125.210938 L 291.03125 151.191406 C 291.03125 163.4375 300.441406 173.367188 312.460938 173.792969 C 318.542969 174 324.320312 171.800781 328.699219 167.574219 C 333.082031 163.347656 335.496094 157.664062 335.496094 151.578125 L 335.496094 149.558594 L 355.15625 149.558594 L 344.480469 272.316406 C 344.191406 275.652344 346.660156 278.59375 349.996094 278.882812 C 350.175781 278.898438 350.351562 278.90625 350.527344 278.90625 C 353.640625 278.90625 356.289062 276.523438 356.5625 273.367188 L 367.390625 148.835938 C 376.933594 146.339844 384 137.644531 384 127.324219 L 384 111.15625 C 384 98.898438 374.027344 88.925781 361.769531 88.925781 Z M 323.367188 94.988281 L 323.367188 151.582031 C 323.367188 154.347656 322.269531 156.929688 320.277344 158.851562 C 318.289062 160.773438 315.667969 161.757812 312.886719 161.679688 C 307.523438 161.488281 303.15625 156.78125 303.15625 151.191406 L 303.15625 117.0625 C 303.15625 114.894531 302 112.890625 300.121094 111.808594 C 299.183594 111.269531 298.140625 111 297.09375 111 C 296.042969 111 294.996094 111.273438 294.054688 111.816406 C 292.214844 112.882812 290.121094 113.339844 288.003906 113.132812 C 282.902344 112.632812 278.90625 108.054688 278.90625 102.707031 L 278.90625 94.992188 C 278.90625 93.875 279.8125 92.96875 280.925781 92.96875 L 321.347656 92.96875 C 322.460938 92.96875 323.367188 93.875 323.367188 94.992188 Z M 371.875 127.324219 C 371.875 132.882812 367.367188 137.40625 361.816406 137.429688 C 361.777344 137.429688 361.738281 137.429688 361.699219 137.429688 L 335.496094 137.429688 L 335.496094 101.054688 L 361.769531 101.054688 C 367.339844 101.054688 371.875 105.585938 371.875 111.160156 Z M 371.875 127.324219 " fill-opacity="1" fill-rule="nonzero"/><path fill="#ffffff" d="M 272.839844 149.558594 C 276.191406 149.558594 278.90625 146.84375 278.90625 143.496094 C 278.90625 140.144531 276.191406 137.433594 272.839844 137.433594 L 240.503906 137.433594 C 237.15625 137.433594 234.441406 140.144531 234.441406 143.496094 C 234.441406 146.84375 237.15625 149.558594 240.503906 149.558594 Z M 272.839844 149.558594 " fill-opacity="1" fill-rule="nonzero"/><path fill="#ffffff" d="M 374.351562 309.960938 C 362.0625 288.984375 339.28125 274.863281 313.261719 274.863281 L 264.757812 274.863281 C 259.183594 274.863281 254.652344 270.328125 254.652344 264.757812 L 254.652344 256.671875 C 254.652344 254.503906 254.335938 252.351562 253.71875 250.289062 C 259.1875 246.234375 262.734375 239.734375 262.734375 232.421875 C 262.734375 220.164062 252.761719 210.1875 240.503906 210.1875 L 230.398438 210.1875 L 230.398438 208.167969 C 230.398438 202.535156 227.089844 197.660156 222.316406 195.386719 L 222.316406 22.230469 C 222.316406 9.972656 212.34375 0 200.085938 0 C 187.824219 0 177.851562 9.972656 177.851562 22.230469 L 177.851562 88.925781 L 103.074219 88.925781 C 90.816406 88.925781 80.84375 98.898438 80.84375 111.15625 L 80.84375 127.324219 C 80.84375 137.644531 87.90625 146.339844 97.453125 148.839844 L 108.28125 273.367188 C 108.570312 276.703125 111.507812 279.1875 114.847656 278.882812 C 118.183594 278.59375 120.652344 275.652344 120.363281 272.316406 L 109.6875 149.558594 L 177.851562 149.558594 L 177.851562 195.386719 C 173.078125 197.660156 169.769531 202.535156 169.769531 208.167969 L 169.769531 210.191406 L 159.664062 210.191406 C 147.402344 210.191406 137.429688 220.164062 137.429688 232.421875 C 137.429688 239.738281 140.980469 246.238281 146.449219 250.292969 C 145.832031 252.351562 145.515625 254.503906 145.515625 256.675781 L 145.515625 313.265625 C 145.515625 352.269531 177.25 384 216.253906 384 L 369.851562 384 C 377.652344 384 384 377.652344 384 369.855469 L 384 345.601562 C 384 332.835938 380.601562 320.847656 374.660156 310.5 C 374.566406 310.3125 374.460938 310.136719 374.351562 309.960938 Z M 189.980469 22.230469 C 189.980469 16.660156 194.511719 12.125 200.085938 12.125 C 205.65625 12.125 210.191406 16.660156 210.191406 22.230469 L 210.191406 194.019531 L 189.980469 194.019531 Z M 103.144531 137.429688 C 103.105469 137.433594 103.066406 137.433594 103.027344 137.429688 C 97.476562 137.40625 92.96875 132.882812 92.96875 127.324219 L 92.96875 111.15625 C 92.96875 105.585938 97.5 101.050781 103.074219 101.050781 L 177.851562 101.050781 L 177.851562 137.429688 Z M 371.875 369.851562 C 371.875 370.96875 370.96875 371.875 369.851562 371.875 L 280.925781 371.875 C 248.609375 371.875 222.316406 345.582031 222.316406 313.265625 L 222.316406 272.84375 C 222.316406 269.492188 219.601562 266.78125 216.253906 266.78125 C 212.902344 266.78125 210.191406 269.492188 210.191406 272.84375 L 210.191406 313.265625 C 210.191406 337.277344 222.21875 358.535156 240.566406 371.328125 C 212.03125 367.402344 189.980469 342.859375 189.980469 313.265625 L 189.980469 272.84375 C 189.980469 269.492188 187.265625 266.78125 183.917969 266.78125 C 180.566406 266.78125 177.851562 269.492188 177.851562 272.84375 L 177.851562 313.265625 C 177.851562 337.277344 189.882812 358.535156 208.226562 371.328125 C 179.695312 367.40625 157.644531 342.859375 157.644531 313.265625 L 157.644531 256.675781 C 157.644531 255.96875 157.71875 255.265625 157.863281 254.582031 C 158.457031 254.628906 159.058594 254.652344 159.664062 254.652344 L 208.171875 254.652344 C 211.519531 254.652344 214.234375 251.941406 214.234375 248.589844 C 214.234375 245.242188 211.519531 242.527344 208.171875 242.527344 L 159.664062 242.527344 C 154.09375 242.527344 149.558594 237.996094 149.558594 232.421875 C 149.558594 226.851562 154.09375 222.316406 159.664062 222.316406 L 175.832031 222.316406 C 179.183594 222.316406 181.894531 219.605469 181.894531 216.253906 L 181.894531 208.171875 C 181.894531 207.054688 182.804688 206.148438 183.917969 206.148438 L 216.253906 206.148438 C 217.367188 206.148438 218.277344 207.054688 218.277344 208.171875 L 218.277344 216.253906 C 218.277344 219.605469 220.992188 222.316406 224.339844 222.316406 L 240.507812 222.316406 C 246.078125 222.316406 250.613281 226.851562 250.613281 232.421875 C 250.613281 237.996094 246.078125 242.527344 240.507812 242.527344 L 232.421875 242.527344 C 229.074219 242.527344 226.359375 245.242188 226.359375 248.589844 C 226.359375 251.941406 229.074219 254.652344 232.421875 254.652344 L 240.507812 254.652344 C 241.113281 254.652344 241.714844 254.628906 242.308594 254.582031 C 242.453125 255.265625 242.527344 255.96875 242.527344 256.675781 L 242.527344 264.757812 C 242.527344 277.019531 252.5 286.992188 264.757812 286.992188 L 313.265625 286.992188 C 330.90625 286.992188 346.753906 294.828125 357.507812 307.203125 L 280.925781 307.203125 C 270.984375 307.203125 261.164062 304.667969 252.53125 299.878906 C 249.605469 298.253906 245.914062 299.308594 244.289062 302.238281 C 242.664062 305.164062 243.71875 308.855469 246.648438 310.480469 C 257.078125 316.265625 268.929688 319.324219 280.925781 319.324219 L 365.648438 319.324219 C 368.765625 325.519531 370.820312 332.335938 371.5625 339.535156 L 280.925781 339.535156 C 270.984375 339.535156 261.167969 337.003906 252.535156 332.214844 C 249.605469 330.585938 245.914062 331.644531 244.292969 334.574219 C 242.667969 337.5 243.722656 341.191406 246.652344 342.816406 C 257.078125 348.601562 268.929688 351.660156 280.925781 351.660156 L 371.875 351.660156 Z M 371.875 369.851562 " fill-opacity="1" fill-rule="nonzero"/></svg>